<?xml version="1.0" encoding="utf-8"?>
<!-- Generator: Adobe Illustrator 21.1.0, SVG Export Plug-In . SVG Version: 6.00 Build 0)  -->
<svg version="1.1" id="Calque_2" xmlns="http://www.w3.org/2000/svg" xmlns:xlink="http://www.w3.org/1999/xlink" x="0px" y="0px"
	 viewBox="0 0 32.6 32.6" style="enable-background:new 0 0 32.6 32.6;" xml:space="preserve">
<style type="text/css">
	.st0{fill:#A4C2F7;}
	.st1{fill:#E3E7F2;}
	.st2{fill:#FFFFFF;}
	.st3{fill:#428DFF;}
</style>
<g>
	<path class="st0" d="M16.7,5.7c-2.2,0-4.3,0.7-6.1,1.9c0,0.5-0.3,1.1-0.7,1.4C9.5,9.1,9.2,9.3,9,9.5C8.8,9.7,8.5,10,8.2,10.2
		c-0.1,0.1-0.3,0.1-0.4,0c-2.9,4.1-2.7,9.7,0.6,13.5s8.8,4.9,13.2,2.6s6.8-7.4,5.6-12.2C26.1,9.1,21.7,5.7,16.7,5.7L16.7,5.7z"/>
	<path class="st1" d="M15.4,5.7c-0.2,0-0.3,0-0.5,0c-0.4,0.7-1.2,0.9-1.9,0.9c-0.2,0-0.4,0-0.7,0c0,0.1-0.1,0.2-0.2,0.3
		c-0.6,0.3-1.1,0.7-1.6,1c0,0.2,0,0.3-0.2,0.4c-1.1,0.8-2.1,1.7-3.2,2.6c-0.4,0.7-0.6,1.7-0.9,2.4c-0.1,0.3-0.3,0.7-0.4,1
		c0,0.8-0.2,1.5-0.3,2.3c0,0,0,0.1,0,0.1c0.3,1.7,0.6,3.3,1.7,4.8c0.6,0.8,0.9,1.7,1.4,2.5c0.6,1,1.8,1.5,2.7,2.2
		c0.1,0.1,0.2,0.2,0.2,0.3c0.4,0.2,0.9,0.4,1.3,0.7c0,0,0,0,0,0c4.1,0.9,8.3-0.6,10.9-3.8s3.1-7.7,1.3-11.5S19.6,5.7,15.4,5.7z"/>
	<path class="st2" d="M16.9,27.5c0.2,0,0.4,0,0.6,0C11.7,27.1,7,22.8,7,16.9c0-5.8,4.5-10.6,10.3-10.9c-0.2,0-0.4,0-0.6,0
		c-6,0-10.9,4.9-10.9,10.9S10.8,27.5,16.9,27.5z"/>
	<g>
		<path class="st3" d="M16.7,27.8c-4.3,0-8.2-2.4-10.1-6.2S5,13.3,7.6,9.8c0.1-0.1,0.2-0.2,0.4-0.2c0.1,0,0.3,0.1,0.3,0.2
			c0.1,0.1,0,0.3,0,0.4c-3.2,4.3-2.6,10.4,1.4,14s10.1,3.6,14.1,0c0.1-0.1,0.3-0.1,0.4-0.1s0.2,0.2,0.3,0.3c0,0.1,0,0.3-0.1,0.4
			C22.2,26.8,19.5,27.8,16.7,27.8L16.7,27.8z"/>
		<path class="st3" d="M26,22.6c-0.1,0-0.3-0.1-0.4-0.2c-0.1-0.1-0.1-0.3,0-0.4c2.6-4.3,1.8-9.7-1.8-13.1S14.6,5.1,10.6,8
			c-0.1,0.1-0.3,0.1-0.4,0C10,8,9.9,7.9,9.9,7.7c0-0.1,0.1-0.3,0.2-0.4c4.4-3.1,10.3-2.7,14.2,0.9s4.7,9.5,2,14.1
			C26.2,22.5,26.1,22.6,26,22.6L26,22.6z"/>
		<path class="st3" d="M21.9,12.1H11.4c-0.2,0-0.4-0.2-0.4-0.4s0.2-0.4,0.4-0.4h10.5c0.2,0,0.4,0.2,0.4,0.4S22.1,12.1,21.9,12.1z"/>
		<path class="st3" d="M23.5,18.6H9.8c-0.2,0-0.4-0.2-0.4-0.4c0-0.2,0.2-0.4,0.4-0.4h13.7c0.2,0,0.4,0.2,0.4,0.4
			C23.9,18.4,23.7,18.6,23.5,18.6z"/>
		<path class="st3" d="M23.5,15.3H9.8c-0.2,0-0.4-0.2-0.4-0.4c0-0.2,0.2-0.4,0.4-0.4h13.7c0.2,0,0.4,0.2,0.4,0.4
			C23.9,15.2,23.7,15.3,23.5,15.3z"/>
		<path class="st3" d="M21.9,21.8H11.4c-0.2,0-0.4-0.2-0.4-0.4c0-0.2,0.2-0.4,0.4-0.4h10.5c0.2,0,0.4,0.2,0.4,0.4
			C22.3,21.6,22.1,21.8,21.9,21.8z"/>
		<circle class="st3" cx="9" cy="8.9" r="0.4"/>
		<circle class="st3" cx="25.1" cy="23.4" r="0.4"/>
	</g>
</g>
</svg>
